<?xml version="1.0" encoding="UTF-8" standalone="no"?>
<!-- Created with Inkscape (http://www.inkscape.org/) -->

<svg
   version="1.1"
   id="svg3155"
   width="829.09149"
   height="830.32422"
   viewBox="0 0 829.09149 830.32422"
   sodipodi:docname="x2.svg"
   inkscape:version="1.2.2 (732a01da63, 2022-12-09, custom)"
   xmlns:inkscape="http://www.inkscape.org/namespaces/inkscape"
   xmlns:sodipodi="http://sodipodi.sourceforge.net/DTD/sodipodi-0.dtd"
   xmlns="http://www.w3.org/2000/svg"
   xmlns:svg="http://www.w3.org/2000/svg">
  <defs
     id="defs3159" />
  <sodipodi:namedview
     id="namedview3157"
     pagecolor="#ffffff"
     bordercolor="#000000"
     borderopacity="0.25"
     inkscape:showpageshadow="2"
     inkscape:pageopacity="0.0"
     inkscape:pagecheckerboard="0"
     inkscape:deskcolor="#d1d1d1"
     showgrid="false"
     inkscape:zoom="0.97949529"
     inkscape:cx="406.33171"
     inkscape:cy="413.47825"
     inkscape:window-width="1920"
     inkscape:window-height="1031"
     inkscape:window-x="0"
     inkscape:window-y="25"
     inkscape:window-maximized="1"
     inkscape:current-layer="layer2" />
  <g
     inkscape:groupmode="layer"
     id="layer2"
     inkscape:label="Layer 1"
     transform="matrix(-1,0,0,1,845.24097,-9.5320892)">
    <path
       style="fill:#000000;stroke-width:1.33333"
       d="m 558.2983,838.12243 c -4.23592,-0.90973 -9.2433,-2.80945 -11.1275,-4.2216 -5.33041,-3.99493 -9.45132,-16.26148 -13.82105,-41.14069 -3.47779,-19.80083 -4.01643,-26.10944 -4.01643,-47.04113 0,-30.86604 2.20308,-63.60182 4.71627,-70.07935 1.07272,-2.76484 1.9504,-6.74595 1.9504,-8.84692 0,-4.56973 3.13357,-12.54808 4.42224,-11.25941 0.5011,0.50111 0.91109,-0.59584 0.91109,-2.43765 v -3.34876 l -23.66667,0.50632 c -13.01666,0.27846 -26.14489,0.8114 -29.17384,1.1843 -5.42964,0.66846 -5.53782,0.78722 -7.68333,8.43374 -2.38077,8.48501 -4.72093,29.31639 -4.77509,42.50635 -0.026,6.34146 0.77577,9.97647 3.29893,14.95568 1.83333,3.61791 3.33333,8.74083 3.33333,11.38424 0,4.59004 -2.37122,8.61576 -5.07484,8.61576 -0.69592,0 -2.01224,0.9 -2.92516,2 -2.69206,3.24374 -23.08702,1.9237 -33.55154,-2.17158 -6.22999,-2.43811 -9.04646,-11.73964 -11.19164,-36.96107 -1.03856,-12.21037 -1.8962,-25.39468 -1.90588,-29.29844 -0.0148,-5.97415 -0.3786,-7.02825 -2.29803,-6.6586 -1.78537,0.34383 -3.77128,6.4736 -9.14813,28.23704 -6.34065,25.66455 -6.9408,29.49073 -7.81996,49.85612 l -0.95225,22.05825 6.10038,8.92823 c 3.35522,4.91052 6.0922,10.07164 6.08219,11.46913 -0.0375,5.23215 -1.66419,8.33944 -4.77444,9.12007 -1.76405,0.44274 -3.20736,1.39356 -3.20736,2.11292 0,0.71936 -1.46459,1.30793 -3.25464,1.30793 -1.79005,0 -3.65884,0.65399 -4.15284,1.45331 -1.99936,3.23502 -30.43815,-2.23226 -36.11405,-6.94284 -1.34931,-1.11982 -1.81786,-5.80152 -1.8355,-18.34039 -0.0133,-9.26021 -0.65202,-22.23674 -1.41998,-28.83674 -0.76798,-6.6 -1.58976,-25.2 -1.82619,-41.33334 l -0.42988,-29.33333 -5.68643,-13.33333 c -3.12754,-7.33333 -6.5076,-14.59711 -7.51126,-16.14172 l -1.82483,-2.80839 -22.30553,3.83336 c -14.50743,2.4932 -30.69603,6.4509 -46.30553,11.32051 -51.14516,15.95548 -109.48676,29.4902 -146,33.87065 -22.39711,2.68697 -28.59238,2.88828 -67.333332,2.18792 -23.466666,-0.42424 -44.023228,-1.17851 -45.681251,-1.67616 -3.280343,-0.98459 -5.042358,-5.53913 -3.735667,-9.65615 0.702673,-2.21393 3.613331,-3.02548 19.787058,-5.51704 29.641164,-4.56621 63.693602,-11.6519 86.596802,-18.01922 17.5205,-4.87088 24.20508,-7.52471 40.66667,-16.14496 42.7744,-22.3992 77.66741,-45.19308 139.69971,-91.25893 84.17456,-62.50893 99.44942,-70.82615 167.33333,-91.11367 8.54036,-2.55233 17.90503,-3.90164 38,-5.47521 28.55803,-2.23628 41.58015,-4.50144 55.297,-9.61872 17.08577,-6.37411 34.83189,-10.20621 51.36967,-11.0928 19.29976,-1.03467 24.64874,-3.2464 42.37097,-17.51994 17.10902,-13.77967 27.49209,-30.73412 36.78688,-60.06914 8.46353,-26.71149 9.83372,-48.03862 9.27928,-144.43371 l -0.43714,-76 4.19482,-16 c 4.97717,-18.98404 12.28828,-36.104862 22.30604,-52.235271 12.7421,-20.51707 19.94754,-28.02954 39.5197,-41.203664 22.17609,-14.926842 22.43639,-15.067244 29.80605,-16.0773698 8.38342,-1.1490734 13.29828,1.1404498 16.18358,7.5388958 3.0251,6.708494 5.99808,9.332573 17.32314,15.29021 13.2196,6.954271 15.14707,11.439446 9.80232,22.809889 -3.40721,7.24854 -5.70778,8.327221 -21.21018,9.944909 -13.15012,1.372224 -26.47875,5.989362 -36.21197,12.5441 -12.60004,8.485363 -28.47234,32.513691 -33.28542,50.389221 -4.40312,16.35303 -3.99269,46.13313 1.49304,108.33241 4.05404,45.96635 4.30311,51.97232 3.64918,88 -0.60447,33.30293 -1.15684,41.16357 -3.98208,56.66666 -6.0328,33.1043 -20.96186,72.95579 -37.21194,99.33333 -20.1043,32.63382 -35.70961,67.62983 -35.70961,80.08137 0,4.2717 -2.13868,10.69935 -7.84015,23.56302 -4.31209,9.72892 -10.98042,25.78894 -14.81851,35.68894 -3.8381,9.9 -9.10324,22.2 -11.70032,27.33334 -4.75162,9.39192 -14.97435,43.63357 -14.97435,50.15742 0,6.01809 9.19595,34.16749 14.04224,42.98425 2.54344,4.62722 4.61624,9.86328 4.60623,11.63572 -0.034,6.02744 -1.53199,9.2226 -4.32366,9.2226 -1.48362,0 -3.37208,0.92255 -4.19656,2.0501 -1.28038,1.75102 -3.1655,1.86073 -12.9227,0.75204 -17.38828,-1.97579 -19.8609,-3.60235 -24.17191,-15.90099 -1.97309,-5.62896 -4.79133,-17.36297 -6.26275,-26.07557 -1.47141,-8.71259 -2.93325,-16.09904 -3.24854,-16.41434 -1.72638,-1.72637 -16.85568,50.18016 -16.85568,57.82947 0,10.33315 6.60756,40.3849 10.63277,48.35881 2.08187,4.12417 4.20041,10.2672 4.70788,13.65117 0.78172,5.21294 0.49524,6.58008 -1.87567,8.95099 -1.53908,1.53908 -4.29832,2.79832 -6.13165,2.79832 -1.83333,0 -3.33333,0.6 -3.33333,1.33333 0,1.81282 -13.55082,1.49267 -23.03502,-0.54421 z"
       id="path3219" />
    <path
       style="fill:#008000;stroke-width:1.33333"
       d="m 636.31176,625.61005 c 1.53594,-1.3184 2.04676,-3.04019 1.52212,-5.13053 -0.43431,-1.73042 -0.19459,-3.1462 0.53272,-3.1462 0.7273,0 1.62169,-1.14463 1.98753,-2.5436 0.38212,-1.4612 3.98891,-4.15628 8.47581,-6.33334 7.6566,-3.71498 7.88484,-3.98696 11.57183,-13.78973 2.06864,-5.5 6.12449,-15.25083 9.01302,-21.66849 3.59854,-7.99519 5.25186,-13.55107 5.25186,-17.64863 0,-7.1056 7.58064,-27.90316 16.52976,-45.34954 3.38548,-6.6 6.75124,-12.72468 7.47949,-13.61039 0.72824,-0.88572 1.32408,-1.91976 1.32408,-2.29788 0,-0.37812 3.90487,-7.00483 8.67747,-14.72601 12.05081,-19.49595 20.78409,-38.67015 28.75964,-63.14271 10.53421,-32.32366 13.25085,-49.93849 14.12022,-91.55634 0.66375,-31.77363 0.36024,-38.78368 -3.63676,-84 -5.22644,-59.12448 -6.06737,-100.17696 -2.31952,-113.23347 1.24726,-4.34508 1.96184,-8.39508 1.58799,-9 -0.37387,-0.60492 -0.0558,-1.09986 0.70687,-1.09986 0.76264,0 1.79122,-1.65 2.28574,-3.66667 0.49451,-2.01666 3.20595,-7.15909 6.0254,-11.42761 2.81946,-4.268529 5.12628,-8.318529 5.12628,-9.000005 0,-2.665038 -6.92534,-1.097314 -10.05097,2.275283 -3.65417,3.942928 -5.03581,8.114462 -8.10976,24.485672 -1.17041,6.23333 -3.02085,14.63333 -4.11209,18.66666 -1.12222,4.1478 -2.44667,17.75872 -3.04899,31.33334 -0.58569,13.19999 -1.68633,27.29999 -2.44588,31.33333 -2.23335,11.8596 -3.4484,64.48202 -1.56993,67.99197 2.12957,3.97915 6.58688,50.35437 6.63348,69.0168 0.0432,17.32066 -2.67347,37.4801 -6.60215,48.99122 -1.50169,4.4 -3.27821,14.3 -3.94781,22 -1.71734,19.74804 -3.51502,24.41184 -19.56508,50.75827 -1.59428,2.61704 -4.28758,8.01704 -5.98511,12 -1.69752,3.98294 -5.06099,10.01338 -7.47439,13.40097 -2.41338,3.38759 -4.38798,7.08759 -4.38798,8.22223 0,1.13464 -0.47251,2.26297 -1.05002,2.50742 -2.77546,1.17479 -14.94998,20.63591 -14.94998,23.89775 0,1.98204 -1.84764,8.01589 -4.10588,13.40855 -2.25823,5.39264 -4.45149,11.00481 -4.87393,12.47147 -0.42243,1.46667 -1.57479,3.85018 -2.56079,5.29668 -0.986,1.4465 -1.79273,3.45988 -1.79273,4.47419 0,1.01431 -1.59204,3.7308 -3.53786,6.03665 -5.50333,6.52163 -12.46214,22.10316 -12.46214,27.9041 0,5.81165 -5.9044,19.40924 -9.56624,22.03065 -1.53202,1.09673 -2.43376,3.41117 -2.43376,6.24653 0,2.47735 -0.59819,6.07762 -1.32931,8.0006 -1.42321,3.74334 -0.38913,3.65227 4.30775,-0.37933 z"
       id="path3344" />
    <path
       style="fill:#008000;stroke-width:1.33333"
       d="m 440.45065,655.13997 c 9.04276,-4.03833 12.79876,-4.95588 22.216,-5.42711 6.23334,-0.3119 13.59548,-1.4249 16.36032,-2.47333 3.5625,-1.35088 10.97503,-1.90621 25.44428,-1.90621 18.43242,0 34.81494,-1.70516 37.03363,-3.8546 0.46103,-0.44664 1.23851,-4.54164 1.72775,-9.1 l 0.8895,-8.28795 -6.39441,2.15812 c -5.10085,1.72153 -14.75584,2.31924 -47.72773,2.9546 l -41.33334,0.79649 -7.59501,3.67298 c -4.63632,2.24213 -8.51401,5.22873 -9.95413,7.66666 -1.29754,2.19654 -2.73347,3.9937 -3.19098,3.9937 -1.32953,0 -3.92654,6.50852 -3.92654,9.84052 0,6.28685 2.30777,6.2821 16.45066,-0.0339 z"
       id="path3342" />
    <path
       style="fill:#008080;stroke-width:1.33333"
       d="m 472.05397,733.08257 c 4.69695,-3.4726 4.89926,-5.987 1.0835,-13.4665 -2.68706,-5.26706 -2.81204,-6.87802 -2.03892,-26.28022 0.74096,-18.59543 2.14586,-30.67435 4.40108,-37.83917 0.73977,-2.35023 0.0659,-2.4652 -11.02251,-1.8803 -9.68153,0.5107 -13.55296,1.41472 -21.47713,5.01515 l -9.66667,4.39215 0.0176,5.48815 c 0.0521,16.25139 3.96632,50.40056 6.41019,55.92534 3.13721,7.09218 4.02384,7.69734 14.23888,9.7186 11.59197,2.2937 13.66682,2.17037 18.05398,-1.0732 z"
       id="path3340" />
    <path
       style="fill:#008080;stroke-width:1.33333"
       d="m 637.73617,756.99998 c 5.37052,-2.48555 5.62401,-5.55549 1.11803,-13.53969 -5.68979,-10.08174 -13.52088,-36.70663 -13.52088,-45.96955 0,-9.32887 8.77674,-41.97168 14.02369,-52.15742 4.80644,-9.33062 13.87508,-31.17083 13.22337,-31.84614 -1.27152,-1.31754 -8.58481,3.11998 -9.32176,5.6562 -2.08293,7.1685 -4.15548,10.07708 -9.66362,13.5618 -3.67532,2.32518 -6.65774,5.5126 -7.86774,8.40852 -2.2219,5.31776 -11.31112,18.65912 -16.66625,24.46311 -4.79252,5.19422 -10.84612,18.09812 -10.83212,23.08984 0.007,2.2 1.61623,13.3 3.57791,24.66666 4.01428,23.26024 9.1701,39.35864 13.31597,41.57744 7.21627,3.86203 16.85816,4.75283 22.6134,2.08923 z"
       id="path3338" />
    <path
       style="fill:#008080;stroke-width:1.33333"
       d="m 576.66665,833.33331 c 0.45323,-0.73333 2.16864,-1.33333 3.81203,-1.33333 7.09216,0 7.79636,-4.88984 2.27841,-15.82084 -4.77921,-9.46756 -10.75696,-38.65287 -10.75743,-52.52121 -2.6e-4,-7.69958 1.38598,-14.38931 6.83639,-32.99128 3.76019,-12.83334 7.70981,-25.04923 8.77695,-27.14644 1.06714,-2.0972 4.01036,-10.06518 6.54049,-17.7066 4.12725,-12.46498 6.31124,-16.49104 12.30967,-22.69225 8.54254,-8.83135 20.181,-31.33475 22.9971,-44.46584 0.80671,-3.76152 2.30816,-7.16202 3.33656,-7.55666 1.0284,-0.39462 1.86983,-1.71981 1.86983,-2.94485 0,-1.22504 0.93313,-3.55959 2.07364,-5.18787 1.14049,-1.62829 2.65629,-6.57856 3.36844,-11.0006 1.45763,-9.05097 6.24065,-20.37494 12.37529,-29.29889 4.82346,-7.01659 8.8493,-14.61313 8.8493,-16.69815 0,-0.8072 1.17622,-3.90215 2.61384,-6.87767 1.43761,-2.97552 3.78101,-9.6219 5.20754,-14.76972 3.113,-11.2336 4.20231,-13.40495 11.70709,-23.33602 3.19267,-4.22485 5.80486,-8.36821 5.80486,-9.20748 0,-1.35334 5.89989,-10.04138 7.99797,-11.77762 0.44308,-0.36667 1.91431,-3.66667 3.26939,-7.33334 1.35508,-3.66666 5.22373,-10.86666 8.597,-16 3.37328,-5.13333 6.36158,-9.93333 6.64069,-10.66666 0.27911,-0.73334 1.98955,-4.51784 3.80097,-8.41002 3.94744,-8.48174 7.02731,-22.38113 7.02731,-31.71409 0,-3.73546 1.24693,-10.33569 2.77097,-14.66716 1.52403,-4.33146 3.417,-11.1754 4.2066,-15.20873 1.83,-9.34784 2.44426,-65.49371 0.86064,-78.66666 -0.6612,-5.5 -1.48822,-12.55626 -1.83782,-15.68056 -0.34962,-3.12432 -1.33564,-8.46044 -2.19118,-11.85806 -1.99076,-7.90604 -0.66846,-66.12121 1.63274,-71.8828 0.97741,-2.44714 1.64178,-13.64734 1.77432,-29.91191 0.19032,-23.35451 0.49678,-26.6105 3.01196,-32 1.54002,-3.3 3.50924,-10.5 4.37601,-16 2.85768,-18.13303 11.59389,-31.05072 22.8402,-33.77236 1.89444,-0.458461 6.09444,-3.154346 9.33333,-5.990857 12.54431,-10.985878 28.9206,-18.460509 43.18385,-19.710402 11.75695,-1.030264 20.40607,-3.157417 21.19471,-5.2126 1.11279,-2.899878 -13.81616,-5.242169 -22.02331,-3.455365 -3.18982,0.694469 -9.84969,1.680325 -14.79969,2.190789 -7.34127,0.757063 -9,0.57734 -9,-0.975144 0,-6.056009 46.59708,-8.684401 46.70721,-2.634604 0.0356,1.959332 0.21051,1.934952 1.45364,-0.202708 2.60564,-4.48059 0.31492,-8.054379 -7.24485,-11.302799 -9.22213,-3.962742 -16.32407,-9.879896 -19.62572,-16.351672 -1.44777,-2.837881 -3.74473,-5.755125 -5.10433,-6.482765 -3.22318,-1.724991 -11.93595,0.572621 -15.51928,4.092528 -1.46667,1.440709 -5.96667,4.65448 -10,7.141713 -8.52549,5.257409 -15.3946,9.967938 -17.98441,12.332912 -1.00382,0.916666 -2.14571,1.666666 -2.53755,1.666666 -1.02436,0 -14.14168,13.823522 -14.14332,14.904761 -7.6e-4,0.49762 -0.84599,1.749357 -1.87827,2.781641 -2.34316,2.343163 -11.45645,16.5115 -11.45645,17.811228 0,0.527483 -0.85036,1.906305 -1.88968,3.064048 -3.787,4.21849 -13.15724,27.83323 -17.23616,43.43832 l -4.18215,16 0.44787,75.34144 c 0.54631,91.90209 -1.16913,120.96078 -8.46347,143.36645 -3.77188,11.5859 -10.50868,27.74518 -14.32085,34.35078 -2.02889,3.5156 -3.68889,6.7016 -3.68889,7.07999 0,2.50791 -11.12562,14.62009 -20.35713,22.16231 -16.90536,13.81181 -22.3213,15.99913 -42.30954,17.08751 -17.06104,0.929 -32.59626,4.31828 -50.77885,11.0783 -4.70496,1.74924 -11.70448,3.91965 -15.55448,4.82314 -3.85,0.9035 -7,2.18287 -7,2.84306 0,0.66018 -0.79713,1.20034 -1.77141,1.20034 -2.18943,0 -14.50289,7.93212 -15.96151,10.28214 -0.58644,0.94482 -2.20102,1.71786 -3.58797,1.71786 -1.38695,0 -2.89255,0.6 -3.34577,1.33334 -1.21106,1.95952 -4.66667,1.62433 -4.66667,-0.45264 0,-0.9823 1.65,-2.53724 3.66667,-3.45544 4.9282,-2.24383 16.44857,-9.75446 15.86194,-10.34108 -0.2577,-0.25771 -11.50706,0.48181 -24.99858,1.64338 -17.40815,1.49878 -27.82047,3.09284 -35.86336,5.49048 -27.9516,8.33254 -49.38259,15.95322 -63.13089,22.44883 -27.85951,13.16268 -49.68927,27.71605 -116.20244,77.46936 -47.83901,35.78461 -88.30499,61.8903 -127.8794,82.49844 -20.66489,10.76112 -40.99105,17.59438 -69.453929,23.34906 -6.6,1.3344 -16.2,3.33943 -21.333333,4.45561 -8.140171,1.76998 -51.373132,8.82391 -54.759032,8.93454 -0.682532,0.0223 -0.119507,0.6921 1.251161,1.48845 1.563215,0.90821 17.218259,1.69696 41.999999,2.11607 34.897144,0.59018 42.230964,0.3348 62.841204,-2.18828 36.80496,-4.50564 96.01937,-18.22732 142.43957,-33.00735 21.11473,-6.72286 36.71592,-10.33345 60.22709,-13.93837 12.7774,-1.95915 12.37617,-1.61229 9.41253,-8.13685 -5.39036,-11.86708 -9.05814,-24.65051 -9.2887,-32.37422 -0.2854,-9.56069 4.45018,-20.43368 13.02869,-29.91412 2.94331,-3.25276 7.56716,-9.70276 10.27521,-14.33333 4.34518,-7.42989 7.27823,-10.44408 7.21954,-7.41921 -0.072,3.7104 -4.76484,13.66256 -8.01618,17 -8.57109,8.79808 -13.57241,14.89518 -15.96514,19.4631 -2.54374,4.85618 -3.90408,18.12154 -2.14947,20.96055 0.52495,0.84939 1.85185,4.98972 2.94869,9.20075 2.72575,10.46485 8.52592,23.04226 10.62612,23.04226 2.64094,0 6.31058,6.02488 12.58767,20.66667 l 5.71615,13.33333 0.34838,28 c 0.19162,15.4 1.08772,34.9 1.99136,43.33333 0.90364,8.43334 1.70798,22.22748 1.7874,30.65367 l 0.14442,15.32033 8.66666,3.13201 c 13.0788,4.72648 28.48875,2.49272 31.17967,-4.51968 0.40529,-1.05618 -1.70283,-5.37019 -4.68471,-9.58667 l -5.42161,-7.66632 0.93227,-25.91586 c 0.89732,-24.94444 1.17678,-26.91858 7.45562,-52.66666 3.58786,-14.71295 7.08144,-28.25081 7.76354,-30.08415 0.68208,-1.83333 1.62558,-5.65184 2.09668,-8.48558 1.1445,-6.8847 10.84482,-17.17928 21.32354,-22.62991 l 8.02167,-4.17256 42,-0.87403 c 40.79021,-0.84886 49.33333,-1.5404 49.33333,-3.99336 0,-0.64784 -0.50503,-1.17789 -1.12228,-1.17789 -0.61725,0 -1.87923,-2.55 -2.80437,-5.66667 -0.92515,-3.11666 -2.16082,-6.26666 -2.74594,-7 -0.58513,-0.73333 -1.77609,-6.13333 -2.64657,-12 -0.87049,-5.86666 -2.48395,-13.96666 -3.58544,-18 -3.64993,-13.36485 -4.17987,-17.7823 -4.35492,-36.30259 -0.14023,-14.8341 0.18112,-18.36407 1.67171,-18.36407 1.46605,0 2.00693,4.55888 2.63174,22.18185 0.45407,12.80701 1.38582,22.78123 2.20459,23.6 0.77999,0.77999 1.41815,2.76273 1.41815,4.40612 0,1.64339 0.51573,3.30672 1.14606,3.69629 0.63034,0.38956 1.54787,5.37498 2.03896,11.07868 1.01111,11.74355 6.58602,29.2409 10.39812,32.63546 3.11507,2.77388 4.1078,7.24202 2.34208,10.54133 -0.87852,1.64151 -0.83443,6.46355 0.13173,14.40981 1.21232,9.97075 1.13142,12.4525 -0.48997,15.02994 -1.06813,1.69794 -3.77569,8.18718 -6.0168,14.42051 -3.43018,9.5406 -4.29689,14.5665 -5.47913,31.77274 -2.55033,37.11714 -1.90419,58.04961 2.57612,83.45543 4.4368,25.15911 8.41285,37.36075 13.21229,40.54574 5.66224,3.75754 23.24548,6.75298 24.80719,4.22609 z"
       id="path3332" />
    <path
       style="fill:#000000;stroke-width:1.33333"
       d="m 462.34831,505.90385 c -1.39634,-1.39632 0.1514,-3.23601 2.73037,-3.24541 1.24005,-0.004 3.97323,-0.90452 6.07372,-2 2.10049,-1.09548 4.37611,-1.99179 5.05693,-1.99179 0.68082,0 4.51996,-2.42464 8.53143,-5.38808 4.01147,-2.96344 10.13584,-6.63126 13.60973,-8.15072 7.64976,-3.34596 30.06711,-9.04436 35.77092,-9.09284 2.26679,-0.0193 7.06679,-0.92853 10.66667,-2.0206 3.59988,-1.09205 7.80305,-1.99205 9.34038,-2 2.65447,-0.0137 11.11499,-3.5687 12.53819,-5.26837 1.41797,-1.69343 29.45895,-12.39823 30.29275,-11.56443 1.58256,1.58256 -2.76592,4.37351 -13.62608,8.74552 -5.86667,2.36176 -14.08426,6.04026 -18.26132,8.17443 -4.17706,2.13417 -12.57706,4.82021 -18.66667,5.96896 -32.44692,6.12085 -39.40761,7.63948 -42.94353,9.36907 -2.12933,1.04154 -4.44864,1.89373 -5.15401,1.89373 -0.70539,0 -5.55588,2.85 -10.77888,6.33333 -5.22302,3.48334 -10.87904,7.06091 -12.56898,7.95015 -4.06013,2.13647 -11.42638,3.47231 -12.61162,2.28705 z"
       id="path3334" />
    <path
       style="fill:#000000;stroke-width:1.33333"
       d="m 793.95314,34.590886 c -0.47898,-0.775014 -0.49319,-2.913966 -0.0316,-4.753227 0.6167,-2.457129 1.58641,-3.23274 3.65602,-2.924218 3.46046,0.515857 5.80167,3.972967 4.67642,6.905327 -0.92996,2.423434 -6.9351,2.982008 -8.30088,0.772118 z"
       id="path3336" />
  </g>
</svg>
